<svg width="35" height="35" viewBox="0 0 35 35" fill="none" xmlns="http://www.w3.org/2000/svg">
<mask id="mask0_71_28840" style="mask-type:luminance" maskUnits="userSpaceOnUse" x="0" y="0" width="35" height="35">
<path d="M35 17.5C35 7.83502 27.165 0 17.5 0C7.83502 0 0 7.83502 0 17.5C0 27.165 7.83502 35 17.5 35C27.165 35 35 27.165 35 17.5Z" fill="white"/>
</mask>
<g mask="url(#mask0_71_28840)">
<path d="M35 0H0V35H35V0Z" fill="#FFAD08"/>
<path d="M-0.0931488 33.8367C5.17078 41.9425 16.009 44.2462 24.1148 38.9823C32.2205 33.7184 34.5242 22.8801 29.2603 14.7744C23.9964 6.66864 13.1581 4.3649 5.0524 9.62882C-3.05333 14.8928 -5.35708 25.731 -0.0931488 33.8367Z" fill="#33CCCC"/>
<path d="M9.64014 21.2753C9.5223 22.2351 9.91762 23.2179 10.7391 24.0076C11.5606 24.7974 12.7411 25.3293 14.0207 25.4864C15.3003 25.6435 16.5744 25.413 17.5625 24.8454C18.5507 24.2779 19.1721 23.4199 19.2899 22.4602" fill="black"/>
<path d="M10.5966 17.4747C10.662 16.9417 10.391 16.4699 9.99131 16.4208C9.5916 16.3718 9.21453 16.764 9.14909 17.2969C9.08366 17.8299 9.35464 18.3017 9.75434 18.3508C10.154 18.3999 10.5311 18.0076 10.5966 17.4747Z" fill="black"/>
<path d="M20.2465 18.6595C20.3119 18.1266 20.0409 17.6548 19.6412 17.6057C19.2415 17.5566 18.8644 17.9488 18.799 18.4818C18.7336 19.0147 19.0045 19.4866 19.4042 19.5356C19.8039 19.5847 20.181 19.1925 20.2465 18.6595Z" fill="black"/>
</g>
</svg>
